<svg xmlns="http://www.w3.org/2000/svg" xmlns:xlink="http://www.w3.org/1999/xlink" width="2500" zoomAndPan="magnify" viewBox="0 0 1874.88 1874.999927" height="2500" preserveAspectRatio="xMidYMid meet" version="1.0"><defs><clipPath id="cd81a1759b"><path d="M 0 0.0585938 L 1874.761719 0.0585938 L 1874.761719 1874.9375 L 0 1874.9375 Z M 0 0.0585938 " clip-rule="nonzero"/></clipPath></defs><g clip-path="url(#cd81a1759b)"><path fill="#28dbd1" d="M 937.441406 1874.941406 C 419.535156 1874.941406 0 1452.511719 0 937.5 C 0 422.488281 419.535156 0.0585938 937.441406 0.0585938 C 1455.347656 0.0585938 1874.878906 419.59375 1874.878906 937.5 C 1874.878906 1455.40625 1452.453125 1874.941406 937.441406 1874.941406 Z M 937.441406 57.925781 C 451.359375 57.925781 57.867188 451.421875 57.867188 937.5 C 57.867188 1423.578125 451.359375 1817.074219 937.441406 1817.074219 C 1423.519531 1817.074219 1817.011719 1423.578125 1817.011719 937.5 C 1817.011719 451.421875 1420.625 57.925781 937.441406 57.925781 Z M 937.441406 57.925781 " fill-opacity="1" fill-rule="nonzero"/></g><path fill="#28dbd1" d="M 1345.1875 900.5 C 1370.394531 898.042969 1393.210938 891.136719 1413.660156 879.742188 C 1434.125 868.347656 1451.097656 853.691406 1464.570312 835.785156 C 1478.023438 817.890625 1487.953125 797.679688 1494.347656 775.195312 C 1500.726562 752.714844 1502.703125 729.140625 1500.316406 704.472656 L 1500.144531 702.816406 C 1497.757812 678.1875 1491.242188 655.277344 1480.617188 634.195312 C 1469.976562 613.09375 1456.042969 595.082031 1438.851562 580.171875 C 1421.59375 565.246094 1401.875 554.039062 1379.554688 546.535156 C 1357.300781 539.011719 1333.527344 536.503906 1308.320312 538.929688 C 1282.535156 541.453125 1259.597656 548.378906 1239.421875 559.738281 C 1219.230469 571.132812 1202.414062 585.765625 1188.90625 603.695312 C 1175.464844 621.585938 1165.539062 641.800781 1159.144531 664.230469 C 1152.75 686.730469 1150.769531 710.324219 1153.160156 734.96875 L 1153.332031 736.625 C 1155.753906 761.292969 1162.269531 784.148438 1172.878906 805.25 C 1183.484375 826.351562 1197.402344 844.328125 1214.660156 859.253906 C 1231.867188 874.195312 1251.480469 885.417969 1273.511719 892.957031 C 1295.527344 900.5 1319.4375 903.007812 1345.1875 900.5 Z M 1354.90625 1017.398438 C 1310.515625 1021.714844 1268.9375 1017.859375 1230.171875 1005.902344 C 1191.390625 993.875 1157.109375 975.949219 1127.402344 952 C 1097.730469 928.066406 1073.582031 898.878906 1055.007812 864.476562 C 1036.4375 830.019531 1025.164062 792.25 1021.15625 751.160156 L 1021.019531 749.523438 C 1016.996094 708.414062 1020.9375 669.164062 1032.789062 631.808594 C 1044.621094 594.386719 1062.769531 560.832031 1087.242188 531.050781 C 1111.734375 501.300781 1141.96875 476.773438 1177.972656 457.460938 C 1213.972656 438.203125 1254.191406 426.417969 1298.5625 422.101562 C 1342.9375 417.75 1384.519531 421.589844 1423.316406 433.597656 C 1462.113281 445.574219 1496.324219 463.519531 1526.035156 487.464844 C 1555.757812 511.398438 1579.890625 540.601562 1598.464844 575.023438 C 1617.035156 609.445312 1628.292969 647.214844 1632.28125 688.289062 L 1632.453125 689.960938 C 1636.460938 731.070312 1632.554688 770.304688 1620.6875 807.691406 C 1608.867188 845.085938 1590.6875 878.652344 1566.214844 908.4375 C 1541.742188 938.203125 1511.5 962.730469 1475.484375 981.988281 C 1439.464844 1001.257812 1399.285156 1013.066406 1354.90625 1017.398438 " fill-opacity="1" fill-rule="nonzero"/><path fill="#28dbd1" d="M 451.3125 1081.753906 C 490.117188 1093.78125 531.699219 1097.601562 576.058594 1093.269531 C 620.453125 1088.953125 660.65625 1077.152344 696.664062 1057.875 C 732.675781 1038.597656 762.921875 1014.089844 787.386719 984.289062 C 811.875 954.539062 830.015625 920.953125 841.875 883.582031 C 853.710938 846.175781 857.644531 806.941406 853.625 765.847656 L 853.472656 764.195312 C 849.472656 723.070312 838.175781 685.320312 819.628906 650.898438 C 801.046875 616.472656 776.921875 587.289062 747.207031 563.359375 C 717.515625 539.441406 683.253906 521.449219 644.480469 509.472656 C 605.683594 497.464844 564.113281 493.660156 519.722656 497.976562 C 475.355469 502.3125 435.148438 514.097656 399.15625 533.390625 C 363.144531 552.648438 332.914062 577.175781 308.433594 606.945312 C 283.960938 636.6875 265.804688 670.273438 253.925781 707.679688 C 242.082031 745.085938 238.175781 784.304688 242.175781 825.414062 L 242.328125 827.070312 C 246.324219 868.179688 257.625 905.945312 276.171875 940.332031 C 294.734375 974.789062 318.867188 1003.941406 348.574219 1027.90625 C 378.304688 1051.820312 412.546875 1069.777344 451.3125 1081.753906 " fill-opacity="1" fill-rule="nonzero"/><path fill="#aeedee" d="M 391.785156 743.894531 C 391.785156 743.894531 353.65625 687.332031 410.230469 676.617188 C 466.773438 665.921875 575.867188 604.105469 751.0625 779.714844 C 751.0625 779.714844 737.808594 817.515625 724.167969 814.035156 C 710.53125 810.519531 539.300781 739.730469 395.839844 881.207031 C 395.839844 881.207031 341.09375 864.050781 362.148438 834.386719 C 383.226562 804.722656 506.785156 717.503906 638.460938 741.027344 C 582.070312 708.226562 446.007812 711.414062 391.785156 743.894531 " fill-opacity="1" fill-rule="nonzero"/><path fill="#28dbd1" d="M 1065.054688 454.597656 C 1065.054688 454.597656 1188.871094 257.355469 1482.050781 316.445312 C 1482.050781 316.445312 1506.695312 280.214844 1485.035156 262.203125 C 1463.410156 244.207031 1195.792969 180.804688 1045.664062 417.414062 C 1045.664062 417.414062 1028.183594 436.757812 1042.40625 450.199219 C 1056.628906 463.636719 1065.054688 454.597656 1065.054688 454.597656 " fill-opacity="1" fill-rule="nonzero"/><path fill="#28dbd1" d="M 732.65625 500.785156 C 732.65625 500.785156 543.472656 365.039062 294.402344 530.636719 C 294.402344 530.636719 257.890625 506.398438 271.089844 481.527344 C 284.324219 456.671875 508.054688 296.757812 736.527344 459.007812 C 736.527344 459.007812 760.019531 470.300781 751.953125 488.109375 C 743.886719 505.957031 732.65625 500.785156 732.65625 500.785156 " fill-opacity="1" fill-rule="nonzero"/><path fill="#28dbd1" d="M 482.734375 1319.863281 C 482.734375 1319.863281 512.617188 1210.933594 472.289062 1206.464844 C 432 1201.960938 354.425781 1326.585938 375.316406 1378.796875 C 396.199219 1431.0625 457.375 1348.210938 457.375 1348.210938 C 626.007812 1749.628906 1166.183594 1710.960938 1366.027344 1356.449219 C 1366.027344 1356.449219 1415.246094 1410.148438 1442.125 1395.222656 C 1468.984375 1380.3125 1413.761719 1189.300781 1354.089844 1208.660156 C 1294.398438 1228.089844 1351.089844 1314.640625 1351.089844 1314.640625 C 1094.472656 1518.652344 738.074219 1524.4375 482.734375 1319.863281 " fill-opacity="1" fill-rule="nonzero"/></svg>